<svg xmlns="http://www.w3.org/2000/svg" width="539.693" height="548.379" viewBox="0 0 539.693 548.379">
  <g id="about_artwork" transform="translate(-586 -921)">
    <rect id="사각형_220" data-name="사각형 220" width="539.686" height="539.686" transform="translate(586.006 929.693)" fill="none"/>
    <g id="frame" transform="translate(586 921)">
      <g id="그룹_374" data-name="그룹 374" transform="translate(0)">
        <g id="그룹_373" data-name="그룹 373" transform="translate(0)">
          <path id="패스_51" data-name="패스 51" d="M384.876,25.521A86.973,86.973,0,0,0,322.631,0H238.6V33.612h83.408a55.263,55.263,0,0,1,54.776,54.776V177.4H410.4V87.766C410.4,63.49,400.437,41.7,384.876,25.521Z" transform="translate(127.401)" fill="#f4ae27"/>
          <path id="패스_52" data-name="패스 52" d="M53.2,365.38a54.615,54.615,0,0,1-16.184-38.592V238.4H3.4v89.01c0,24.276,9.959,46.062,25.521,62.246,16.806,15.561,38.592,25.52,62.868,25.52H175.2V381.564H91.788A54.616,54.616,0,0,1,53.2,365.38Z" transform="translate(-3.4 132.581)" fill="#f4ae27"/>
          <path id="패스_53" data-name="패스 53" d="M376.162,327.41a55.262,55.262,0,0,1-54.775,54.776H238.6V415.8h83.408c24.276,0,46.062-9.959,62.246-25.521a86.973,86.973,0,0,0,25.52-62.245V238.4H376.162Z" transform="translate(127.401 132.581)" fill="#f4ae27"/>
          <path id="패스_54" data-name="패스 54" d="M29.321,25.521A86.973,86.973,0,0,0,3.8,87.766v89.011H37.412V87.766A55.262,55.262,0,0,1,92.188,32.99H175.6V0H91.566C67.29,0,45.5,9.959,29.321,25.521Z" transform="translate(-3.178)" fill="#f4ae27"/>
        </g>
      </g>
    </g>
  </g>
</svg>
