<svg xmlns="http://www.w3.org/2000/svg" width="408" height="408.467" viewBox="0 0 408 408.467">
  <g id="그룹_13" data-name="그룹 13" transform="translate(-1003.467 -144)">
    <g id="shopping-bag" transform="translate(1043.847 144)">
      <path id="패스_13" data-name="패스 13" d="M375.657,353.086,352.268,89.712a11.257,11.257,0,0,0-11.193-10.274H292.961a80.7,80.7,0,0,0-161.382,0H83.465A11.2,11.2,0,0,0,72.272,89.712L48.884,353.086c0,.334-.084.668-.084,1,0,29.988,27.482,54.379,61.312,54.379H314.429c33.83,0,61.312-24.391,61.312-54.379A4.068,4.068,0,0,0,375.657,353.086ZM212.27,22.553a58.2,58.2,0,0,1,58.138,56.885H154.133A58.2,58.2,0,0,1,212.27,22.553Zm102.158,363.36H110.112c-21.217,0-38.424-14.033-38.758-31.324L93.74,102.075H131.5v34.248a11.277,11.277,0,0,0,22.553,0V102.075H270.408v34.248a11.277,11.277,0,1,0,22.553,0V102.075h37.756l22.47,252.514C352.853,371.88,335.562,385.913,314.429,385.913Z" transform="translate(-48.8)" fill="#fafafa"/>
    </g>
    <rect id="사각형_3" data-name="사각형 3" width="408" height="408" transform="translate(1003.467 144)" fill="none"/>
  </g>
</svg>
