<svg xmlns="http://www.w3.org/2000/svg" width="212" height="212" viewBox="0 0 212 212">
  <g id="bid_link" transform="translate(-702 -426)">
    <circle id="타원_21" data-name="타원 21" cx="106" cy="106" r="106" transform="translate(702 426)" fill="#ddd"/>
    <g id="share" transform="translate(735.918 464.16)">
      <g id="그룹_366" data-name="그룹 366" transform="translate(0)">
        <path id="패스_50" data-name="패스 50" d="M117.442,86.356a23.391,23.391,0,0,0-18.826,9.512L61.871,77.09a23.409,23.409,0,0,0-.761-15.38L99.621,38.571a23.314,23.314,0,1,0-4-6.7L57.009,55.07A23.407,23.407,0,1,0,58.444,84.1l36.639,18.724a23.411,23.411,0,1,0,22.36-16.47Zm0-78.553A15.607,15.607,0,1,1,101.836,23.41,15.624,15.624,0,0,1,117.442,7.8ZM39.41,86.1A15.607,15.607,0,1,1,55.016,70.49,15.624,15.624,0,0,1,39.41,86.1Zm78.033,39.276a15.607,15.607,0,1,1,15.607-15.607A15.624,15.624,0,0,1,117.442,125.372Z" transform="translate(-16)" fill="#fafafa"/>
      </g>
    </g>
  </g>
</svg>
