<svg id="edit" xmlns="http://www.w3.org/2000/svg" width="317.789" height="317.778" viewBox="0 0 317.789 317.778">
  <path id="패스_33" data-name="패스 33" d="M266.866,116.365A14.042,14.042,0,0,0,252.82,130.41V242.775a14.06,14.06,0,0,1-14.046,14.046H42.137a14.06,14.06,0,0,1-14.046-14.046V46.137A14.06,14.06,0,0,1,42.137,32.091H154.5A14.046,14.046,0,0,0,154.5,4H42.137A42.188,42.188,0,0,0,0,46.137V242.775a42.188,42.188,0,0,0,42.137,42.137H238.775a42.188,42.188,0,0,0,42.137-42.137V130.41A14.033,14.033,0,0,0,266.866,116.365Z" transform="translate(0 32.867)"/>
  <path id="패스_34" data-name="패스 34" d="M20.514,114.306a7.11,7.11,0,0,0-1.924,3.582l-9.93,49.665a7.019,7.019,0,0,0,6.9,8.4,6.638,6.638,0,0,0,1.376-.14l49.651-9.93a6.984,6.984,0,0,0,3.6-1.924L181.307,52.828,131.656,3.177Z" transform="translate(91.873 41.435)"/>
  <path id="패스_35" data-name="패스 35" d="M87.439,10.272a35.138,35.138,0,0,0-49.651,0L18.349,29.711,68,79.362,87.439,59.923a35.113,35.113,0,0,0,0-49.651Z" transform="translate(220.068 -0.001)"/>
</svg>
