<svg xmlns="http://www.w3.org/2000/svg" width="358" height="358" viewBox="0 0 358 358">
  <g id="그룹_14" data-name="그룹 14" transform="translate(-1127.217 -145)">
    <path id="heart" d="M173.054,307.926a20.3,20.3,0,0,1-13.38-5.028c-13.982-12.226-27.462-23.715-39.355-33.85l-.061-.053c-34.869-29.715-64.98-55.376-85.93-80.654C10.908,160.081,0,133.287,0,104.016,0,75.577,9.752,49.34,27.457,30.135A93.07,93.07,0,0,1,96.688,0a87.057,87.057,0,0,1,54.38,18.772,111.26,111.26,0,0,1,21.986,22.957,111.271,111.271,0,0,1,21.988-22.957A87.058,87.058,0,0,1,249.423,0a93.075,93.075,0,0,1,69.231,30.135c17.705,19.205,27.454,45.442,27.454,73.881,0,29.271-10.906,56.065-34.325,84.322-20.951,25.281-51.059,50.94-85.922,80.652-11.914,10.15-25.416,21.658-39.429,33.913A20.311,20.311,0,0,1,173.054,307.926ZM96.688,20.275a73.019,73.019,0,0,0-54.328,23.6c-14.243,15.45-22.089,36.807-22.089,60.14,0,24.618,9.15,46.636,29.664,71.389,19.828,23.926,49.321,49.06,83.469,78.162l.063.053c11.938,10.174,25.471,21.708,39.556,34.024,14.169-12.34,27.724-23.892,39.686-34.082,34.146-29.1,63.636-54.23,83.464-78.156,20.512-24.753,29.662-46.77,29.662-71.389,0-23.332-7.845-44.689-22.089-60.14a73.013,73.013,0,0,0-54.325-23.6,67.241,67.241,0,0,0-41.98,14.534c-11.114,8.6-18.857,19.466-23.4,27.071a12.8,12.8,0,0,1-21.986,0c-4.537-7.6-12.279-18.474-23.4-27.071A67.239,67.239,0,0,0,96.688,20.275Zm0,0" transform="translate(1138.941 168.881)" fill="#fafafa"/>
    <rect id="사각형_4" data-name="사각형 4" width="358" height="358" transform="translate(1127.217 145)" fill="none"/>
  </g>
</svg>
