<svg xmlns="http://www.w3.org/2000/svg" width="272.296" height="272" viewBox="0 0 272.296 272">
  <g id="그룹_561" data-name="그룹 561" transform="translate(-1127 -145)">
    <path id="heart" d="M131.608,234.177a15.435,15.435,0,0,1-10.175-3.824c-10.633-9.3-20.885-18.035-29.93-25.743l-.046-.04c-26.518-22.6-49.417-42.113-65.35-61.338C8.3,121.741,0,101.364,0,79.1,0,57.476,7.416,37.523,20.881,22.917A70.78,70.78,0,0,1,73.531,0a66.207,66.207,0,0,1,41.356,14.276,84.613,84.613,0,0,1,16.72,17.459A84.621,84.621,0,0,1,148.33,14.276,66.207,66.207,0,0,1,189.686,0a70.783,70.783,0,0,1,52.65,22.917C255.8,37.523,263.215,57.476,263.215,79.1c0,22.261-8.294,42.638-26.1,64.127-15.933,19.226-38.83,38.74-65.344,61.336-9.061,7.719-19.329,16.471-29.986,25.791A15.446,15.446,0,0,1,131.608,234.177ZM73.531,15.419A55.531,55.531,0,0,0,32.215,33.368c-10.832,11.75-16.8,27.992-16.8,45.736,0,18.722,6.958,35.466,22.56,54.291,15.079,18.2,37.509,37.31,63.478,59.442l.048.04c9.079,7.738,19.371,16.509,30.082,25.875,10.776-9.384,21.084-18.17,30.181-25.919,25.968-22.132,48.395-41.242,63.474-59.438C240.84,114.57,247.8,97.826,247.8,79.1c0-17.744-5.966-33.986-16.8-45.736a55.526,55.526,0,0,0-41.314-17.949A51.137,51.137,0,0,0,157.76,26.472a74.818,74.818,0,0,0-17.792,20.588,9.733,9.733,0,0,1-16.72,0,74.749,74.749,0,0,0-17.792-20.588A51.135,51.135,0,0,0,73.531,15.419Zm0,0" transform="translate(1136.081 163.162)" fill="#fafafa"/>
    <rect id="사각형_4" data-name="사각형 4" width="272" height="272" transform="translate(1127 145)" fill="none"/>
  </g>
</svg>
