<svg xmlns="http://www.w3.org/2000/svg" width="1638.392" height="333.819" viewBox="0 0 1638.392 333.819">
  <g id="그룹_3" data-name="그룹 3" transform="translate(-170.799 -585.556)">
    <g id="그룹_1" data-name="그룹 1" transform="translate(170.799 585.556)">
      <path id="패스_1" data-name="패스 1" d="M299.2,836.865l-24.578,14.19-89.231-51.523V652.624l85.472-49.352V820.509Z" transform="translate(-149.071 -559.172)" fill="none"/>
      <path id="패스_2" data-name="패스 2" d="M374.078,652.624V799.532l-89.217,51.523-24.57-14.19L288.607,820.5V603.272Z" transform="translate(-37.516 -559.172)" fill="none"/>
      <path id="패스_3" data-name="패스 3" d="M385.572,825.923l-28.315,16.355h-.007L320.925,863.25l-28.337-16.356V629.656l-85.472,49.352L170.8,699.979V658.037l36.317-20.971,85.472-49.345,3.76-2.165,32.572,18.806V825.916l28.33,16.355Z" transform="translate(-170.799 -585.556)" fill="#fff"/>
      <path id="패스_4" data-name="패스 4" d="M543.693,658.037v41.943l-36.332-20.972L421.89,629.656V846.887l-28.322,16.355L358.7,883.38l-1.448.841-60.9,35.154L170.8,846.894V699.979l36.317-20.972V825.916l89.232,51.524,24.577-14.19,36.325-20.972h.007l28.315-16.355V604.362l32.572-18.806Z" transform="translate(-170.799 -585.556)" fill="#f4ae27"/>
      <path id="패스_5" data-name="패스 5" d="M282.024,807.338l24.57,14.191L395.811,770V623.1l36.332,20.972V790.983L306.594,863.464,245.7,828.31l1.448-.841,34.869-20.138" transform="translate(-59.248 -529.645)" fill="#fff"/>
    </g>
    <g id="그룹_2" data-name="그룹 2" transform="translate(624.28 615.037)">
      <path id="패스_6" data-name="패스 6" d="M366.712,791.487q0,34.74,18.705,50t55.161,15.27q36.452,0,55.736-15.078t19.277-50.2v-192.4h13.744v192.4q0,41.61-22.715,59.93t-66.042,18.327q-43.329,0-65.469-18.327t-22.14-59.93v-192.4h13.743Z" transform="translate(-352.969 -594.886)" fill="#fff"/>
      <path id="패스_7" data-name="패스 7" d="M451.419,866.306V599.086h32.448L610.985,853.328H621.3V599.086h13.741v267.22H602.586l-127.5-254.24H465.16v254.24Z" transform="translate(-206.344 -594.886)" fill="#fff"/>
      <path id="패스_8" data-name="패스 8" d="M553.4,866.306V599.086h13.744v267.22Z" transform="translate(-54.466 -594.886)" fill="#fff"/>
      <path id="패스_9" data-name="패스 9" d="M748.976,864.161Q710.8,871.8,680.068,871.8t-49.625-8.972a63.984,63.984,0,0,1-29.2-27.676,129.648,129.648,0,0,1-14.126-41.993q-3.82-23.281-3.817-53.826t2.1-50.006a188.191,188.191,0,0,1,8.016-37.793q5.919-18.327,16.227-29.4,22.9-24.424,68.713-24.43a368.046,368.046,0,0,1,70.625,7.254l-1.146,13.359q-36.65-7.631-63.562-7.634t-41.8,6.106q-14.892,6.111-23.479,15.844t-13.36,26.72a187.124,187.124,0,0,0-6.3,34.166Q597.8,710.7,597.8,735.9t1.526,42.375a166.327,166.327,0,0,0,6.493,33.592q4.954,16.419,13.744,25.958,19.464,21,58.786,21,29.779,0,69.479-7.635Z" transform="translate(-9.932 -596.942)" fill="#fff"/>
      <path id="패스_10" data-name="패스 10" d="M683.837,791.487q0,34.74,18.706,50t55.163,15.27q36.448,0,55.731-15.078t19.28-50.2v-192.4h13.745v192.4q0,41.61-22.716,59.93t-66.04,18.327q-43.332,0-65.469-18.327t-22.143-59.93v-192.4h13.743Z" transform="translate(119.335 -594.886)" fill="#fff"/>
      <path id="패스_11" data-name="패스 11" d="M845.48,610.378q-67.955,0-67.949,53.446,0,24.051,8.015,34.736a63.086,63.086,0,0,0,9.542,9.735q4.96,4.011,14.508,7.063a327.276,327.276,0,0,0,39.7,8.4q41.6,6.493,59.741,20.042,18.125,13.554,18.133,47.526,0,43.143-20.039,61.651t-60.889,18.515q-25.194,0-67.57-4.582l-14.125-1.526,1.528-13.36q52.679,6.5,83.221,6.49,63.363,0,63.366-66.042,0-27.864-14.5-38.555T853.3,738.646q-30.346-4.582-43.134-8.21a93.771,93.771,0,0,1-24.814-11.261,42.348,42.348,0,0,1-17.179-20.8q-5.153-13.174-5.153-33.782,0-67.187,82.457-67.191,26.339,0,63.368,4.582l12.6,1.527-1.529,13.361Q867.616,610.381,845.48,610.378Z" transform="translate(257.739 -597.398)" fill="#fff"/>
    </g>
  </g>
</svg>
