<svg xmlns="http://www.w3.org/2000/svg" width="20" height="20" viewBox="0 0 20 20">
  <g id="search_sm" transform="translate(-1461 -49)">
    <g id="search-interface-symbol" transform="translate(1460.995 49.001)">
      <g id="_x34__4_" transform="translate(0.006)">
        <g id="그룹_65" data-name="그룹 65" transform="translate(0)">
          <path id="패스_29" data-name="패스 29" d="M19.816,18.911,14.652,13.83a8.167,8.167,0,0,0,2.183-5.55A8.349,8.349,0,0,0,8.42,0,8.348,8.348,0,0,0,.006,8.28a8.348,8.348,0,0,0,8.414,8.28,8.462,8.462,0,0,0,5.3-1.849l5.184,5.1a.654.654,0,0,0,.915,0A.63.63,0,0,0,19.816,18.911ZM8.42,15.287A7.064,7.064,0,0,1,1.3,8.28,7.064,7.064,0,0,1,8.42,1.274,7.064,7.064,0,0,1,15.54,8.28,7.064,7.064,0,0,1,8.42,15.287Z" transform="translate(-0.006)" fill="#222"/>
        </g>
      </g>
    </g>
    <rect id="사각형_40" data-name="사각형 40" width="20" height="20" transform="translate(1461 49)" fill="none"/>
  </g>
</svg>
