<svg xmlns="http://www.w3.org/2000/svg" width="457.913" height="457.922" viewBox="0 0 457.913 457.922">
  <g id="그룹_67" data-name="그룹 67" transform="translate(-1133 -752)">
    <g id="search-interface-symbol" transform="translate(1133 752)">
      <g id="_x34__4_" transform="translate(0)">
        <g id="그룹_66" data-name="그룹 66" transform="translate(0)">
          <path id="패스_30" data-name="패스 30" d="M453.584,433.01,335.356,316.671c30.96-33.637,49.983-78.123,49.983-127.075C385.324,84.878,299.071,0,192.665,0S.006,84.878.006,189.6s86.253,189.6,192.659,189.6a193.755,193.755,0,0,0,121.264-42.339l118.687,116.8a14.982,14.982,0,0,0,20.955,0A14.434,14.434,0,0,0,453.584,433.01ZM192.665,350.021c-90.031,0-163.016-71.825-163.016-160.425S102.634,29.17,192.665,29.17,355.681,101,355.681,189.6,282.7,350.021,192.665,350.021Z" transform="translate(-0.006)" fill="#555"/>
        </g>
      </g>
    </g>
  </g>
</svg>
