<svg xmlns="http://www.w3.org/2000/svg" width="24.01" height="30.1" viewBox="0 0 24.01 30.1">
  <g id="shopping-bag" transform="translate(-48.801 0.093)">
    <path id="패스_13" data-name="패스 13" d="M72.806,25.933,71.088,6.589a.827.827,0,0,0-.822-.755H66.733a5.927,5.927,0,1,0-11.854,0H51.346a.822.822,0,0,0-.822.755L48.806,25.933c0,.025-.006.049-.006.074A4.275,4.275,0,0,0,53.3,30H68.309a4.275,4.275,0,0,0,4.5-3.994.3.3,0,0,0,0-.073Zm-12-24.276a4.274,4.274,0,0,1,4.27,4.178h-8.54a4.274,4.274,0,0,1,4.27-4.179Zm7.5,26.687H53.3a2.643,2.643,0,0,1-2.847-2.3L52.1,7.5h2.773v2.515a.828.828,0,1,0,1.656,0V7.5h8.546v2.515a.828.828,0,1,0,1.656,0V7.5H69.5l1.65,18.546a2.647,2.647,0,0,1-2.845,2.3Z" fill="#f4ae27"/>
  </g>
</svg>
