<svg xmlns="http://www.w3.org/2000/svg" width="498.174" height="410.758" viewBox="0 0 498.174 410.758">
  <g id="two-thin-arrows-forming-a-circle" transform="translate(0.5 0.5)">
    <g id="그룹_557" data-name="그룹 557" transform="translate(0 0)">
      <path id="패스_55" data-name="패스 55" d="M408.57,255.082c-38.514,39.853-89.665,61.808-144.1,61.808-112.273,0-203.632-94.569-203.739-210.816l41.549,43.089a6.869,6.869,0,0,0,9.936,0,7.512,7.512,0,0,0,0-10.291L57.135,81.8,2.065,138.871a7.442,7.442,0,0,0,0,10.291,6.843,6.843,0,0,0,9.9,0l34.982-36.25C50.6,234.025,146.6,331.442,264.4,331.442c58.194,0,112.891-23.471,154.052-66.085a7.454,7.454,0,0,0,0-10.273A6.778,6.778,0,0,0,408.57,255.082Z" transform="translate(0 78.316)" fill="#222" stroke="#222" stroke-width="1"/>
      <path id="패스_56" data-name="패스 56" d="M455.326,198.018a6.848,6.848,0,0,0-9.918,0l-34.95,36.232c-3.689-121.112-99.69-218.512-217.471-218.512-58.23,0-112.909,23.471-154.071,66.085a7.419,7.419,0,0,0,0,10.273,6.818,6.818,0,0,0,9.918,0c38.5-39.853,89.665-61.808,144.1-61.808,112.256,0,203.633,94.55,203.775,210.815l-41.585-43.088a6.869,6.869,0,0,0-9.936,0,7.513,7.513,0,0,0,0,10.291l55.088,57.056,55.07-57.056A7.458,7.458,0,0,0,455.326,198.018Z" transform="translate(39.78 -15.738)" fill="#222" stroke="#222" stroke-width="1"/>
    </g>
  </g>
</svg>
