<svg xmlns="http://www.w3.org/2000/svg" width="351.57" height="421.337" viewBox="0 0 351.57 421.337">
  <g id="user" transform="translate(0.008 0.001)">
    <path id="패스_14" data-name="패스 14" d="M188.488,202.891a98.163,98.163,0,0,0,71.727-29.721,98.162,98.162,0,0,0,29.721-71.727,98.162,98.162,0,0,0-29.721-71.727,101.42,101.42,0,0,0-143.453,0A98.162,98.162,0,0,0,87.04,101.443a98.163,98.163,0,0,0,29.721,71.727,98.191,98.191,0,0,0,71.727,29.721ZM134.212,47.181a76.739,76.739,0,0,1,108.538,0,73.341,73.341,0,0,1,22.463,54.276,73.342,73.342,0,0,1-22.463,54.276,76.725,76.725,0,0,1-108.538,0,73.327,73.327,0,0,1-22.463-54.276,73.327,73.327,0,0,1,22.463-54.276Zm0,0" transform="translate(-15.35 0)" fill="#f4ae27"/>
    <path id="패스_15" data-name="패스 15" d="M350.637,367.813a250.571,250.571,0,0,0-3.412-26.675,209.673,209.673,0,0,0-6.542-26.759,132.157,132.157,0,0,0-11.007-24.948,94.073,94.073,0,0,0-16.58-21.62,73.128,73.128,0,0,0-23.867-14.966,82.322,82.322,0,0,0-30.423-5.5,30.887,30.887,0,0,0-16.482,7.02c-4.942,3.229-10.726,7.02-17.17,11.077a98.425,98.425,0,0,1-22.224,9.827,86.289,86.289,0,0,1-54.36,0,98.1,98.1,0,0,1-22.112-9.855c-6.388-4.086-12.172-7.806-17.2-11.077a30.889,30.889,0,0,0-16.482-7.02,82.229,82.229,0,0,0-30.409,5.518A73,73,0,0,0,38.5,267.8,94.069,94.069,0,0,0,21.921,289.4a132.4,132.4,0,0,0-10.993,24.962,210.2,210.2,0,0,0-6.612,26.857A248.88,248.88,0,0,0,.9,367.9C.342,375.942.062,384.31.062,392.775A69.93,69.93,0,0,0,20.826,445.69,74.757,74.757,0,0,0,74.344,465.2H277.2a74.772,74.772,0,0,0,53.518-19.514,69.915,69.915,0,0,0,20.778-52.915C351.493,384.2,351.212,375.83,350.637,367.813ZM313.7,427.719a50.346,50.346,0,0,1-36.5,12.72H74.4a50.344,50.344,0,0,1-36.5-12.72,45.67,45.67,0,0,1-13.113-35.1c0-7.89.267-15.682.786-23.165a224.47,224.47,0,0,1,3.089-23.965,185.322,185.322,0,0,1,5.756-23.585,107.8,107.8,0,0,1,8.957-20.287,69.714,69.714,0,0,1,12.186-15.977,48.484,48.484,0,0,1,15.85-9.827,56.794,56.794,0,0,1,19.444-3.749c.87.464,2.4,1.4,4.9,2.963,5.068,3.313,10.923,7.02,17.381,11.231a122.351,122.351,0,0,0,27.9,12.467,110.909,110.909,0,0,0,69.551,0,122.451,122.451,0,0,0,27.91-12.467c6.613-4.212,12.3-7.89,17.381-11.231,2.5-1.629,4.029-2.5,4.9-2.962a56.83,56.83,0,0,1,19.444,3.749,48.583,48.583,0,0,1,15.85,9.827,69.533,69.533,0,0,1,12.186,15.977,107.466,107.466,0,0,1,8.957,20.287,184.933,184.933,0,0,1,5.756,23.586,226.371,226.371,0,0,1,3.089,23.979h0c.519,7.455.786,15.247.786,23.151a45.67,45.67,0,0,1-13.141,35.1Zm0,0" transform="translate(0 -43.932)" fill="#f4ae27"/>
  </g>
</svg>
