<svg id="user" xmlns="http://www.w3.org/2000/svg" width="25.029" height="30" viewBox="0 0 25.029 30">
  <path id="패스_14" data-name="패스 14" d="M94.257,14.451a6.992,6.992,0,0,0,5.109-2.117,6.992,6.992,0,0,0,2.117-5.109,6.992,6.992,0,0,0-2.117-5.109,7.224,7.224,0,0,0-10.218,0,6.992,6.992,0,0,0-2.117,5.109,6.992,6.992,0,0,0,2.117,5.109A6.994,6.994,0,0,0,94.257,14.451ZM90.391,3.36a5.466,5.466,0,0,1,7.731,0,5.224,5.224,0,0,1,1.6,3.866,5.224,5.224,0,0,1-1.6,3.866,5.465,5.465,0,0,1-7.731,0,5.223,5.223,0,0,1-1.6-3.866A5.223,5.223,0,0,1,90.391,3.36Zm0,0" transform="translate(-81.932 0)" fill="#fafafa"/>
  <path id="패스_15" data-name="패스 15" d="M24.968,255.894a17.847,17.847,0,0,0-.243-1.9,14.935,14.935,0,0,0-.466-1.906,9.413,9.413,0,0,0-.784-1.777,6.7,6.7,0,0,0-1.181-1.54,5.209,5.209,0,0,0-1.7-1.066,5.864,5.864,0,0,0-2.167-.392,2.2,2.2,0,0,0-1.174.5c-.352.23-.764.5-1.223.789a7.01,7.01,0,0,1-1.583.7,6.146,6.146,0,0,1-3.872,0A6.988,6.988,0,0,1,9,248.6c-.455-.291-.867-.556-1.225-.789a2.2,2.2,0,0,0-1.174-.5,5.857,5.857,0,0,0-2.166.393,5.2,5.2,0,0,0-1.7,1.066,6.7,6.7,0,0,0-1.181,1.539,9.431,9.431,0,0,0-.783,1.778A14.972,14.972,0,0,0,.3,254a17.726,17.726,0,0,0-.243,1.9c-.04.573-.06,1.169-.06,1.772a4.981,4.981,0,0,0,1.479,3.769,5.325,5.325,0,0,0,3.812,1.39H19.737a5.326,5.326,0,0,0,3.812-1.39,4.98,4.98,0,0,0,1.48-3.769C25.029,257.061,25.009,256.465,24.968,255.894Zm-2.631,4.267a3.586,3.586,0,0,1-2.6.906H5.292a3.586,3.586,0,0,1-2.6-.906,3.253,3.253,0,0,1-.934-2.5c0-.562.019-1.117.056-1.65a15.99,15.99,0,0,1,.22-1.707,13.2,13.2,0,0,1,.41-1.68,7.679,7.679,0,0,1,.638-1.445,4.966,4.966,0,0,1,.868-1.138,3.454,3.454,0,0,1,1.129-.7,4.045,4.045,0,0,1,1.385-.267c.062.033.171.1.349.211.361.236.778.5,1.238.8a8.714,8.714,0,0,0,1.987.888,7.9,7.9,0,0,0,4.954,0,8.722,8.722,0,0,0,1.988-.888c.471-.3.876-.562,1.238-.8.178-.116.287-.178.349-.211a4.048,4.048,0,0,1,1.385.267,3.46,3.46,0,0,1,1.129.7,4.953,4.953,0,0,1,.868,1.138,7.653,7.653,0,0,1,.638,1.445,13.172,13.172,0,0,1,.41,1.68,16.123,16.123,0,0,1,.22,1.708h0c.037.531.056,1.086.056,1.649A3.253,3.253,0,0,1,22.337,260.161Zm0,0" transform="translate(0 -232.825)" fill="#fafafa"/>
</svg>
