<svg xmlns="http://www.w3.org/2000/svg" width="387" height="387" viewBox="0 0 387 387">
  <g id="그룹_15" data-name="그룹 15" transform="translate(-1127.924 -144)">
    <g id="user" transform="translate(1153.795 144)">
      <path id="패스_14" data-name="패스 14" d="M180.225,186.383c25.605,0,47.775-9.184,65.895-27.3s27.3-40.283,27.3-65.891-9.184-47.769-27.3-65.891S205.828,0,180.225,0,132.45,9.184,114.334,27.3s-27.3,40.286-27.3,65.889,9.187,47.778,27.3,65.894S154.626,186.383,180.225,186.383ZM130.37,43.332c13.9-13.9,30.208-20.658,49.856-20.658s35.955,6.757,49.859,20.658,20.661,30.214,20.661,49.856-6.76,35.955-20.661,49.859-30.214,20.661-49.859,20.661-35.949-6.76-49.856-20.661-20.664-30.211-20.664-49.859S116.465,57.236,130.37,43.332Zm0,0" transform="translate(-21.261 0)" fill="#fafafa"/>
      <path id="패스_15" data-name="패스 15" d="M322.03,357.942a230.177,230.177,0,0,0-3.135-24.448,192.615,192.615,0,0,0-6.013-24.582,121.4,121.4,0,0,0-10.108-22.925,86.436,86.436,0,0,0-15.235-19.859,67.182,67.182,0,0,0-21.889-13.753,75.633,75.633,0,0,0-27.944-5.057c-3.95,0-7.77,1.62-15.147,6.424-4.54,2.961-9.851,6.385-15.778,10.173-5.069,3.229-11.935,6.255-20.416,8.994a79.268,79.268,0,0,1-49.942,0c-8.472-2.736-15.342-5.762-20.4-8.991-5.872-3.752-11.185-7.176-15.793-10.178-7.371-4.8-11.191-6.424-15.141-6.424a75.532,75.532,0,0,0-27.941,5.063,67.122,67.122,0,0,0-21.892,13.753,86.441,86.441,0,0,0-15.232,19.855,121.64,121.64,0,0,0-10.1,22.927,193.1,193.1,0,0,0-6.01,24.579A228.622,228.622,0,0,0,.773,357.951C.26,365.34,0,373.03,0,380.8c0,20.2,6.421,36.549,19.082,48.607,12.5,11.9,29.048,17.934,49.171,17.934H254.559c20.118,0,36.661-6.033,49.168-17.934,12.664-12.05,19.085-28.406,19.085-48.61C322.809,373,322.547,365.311,322.03,357.942Zm-33.936,55.037c-8.263,7.864-19.232,11.687-33.538,11.687H68.253c-14.308,0-25.278-3.823-33.538-11.684-8.1-7.713-12.041-18.243-12.041-32.183,0-7.25.239-14.408.717-21.281A206.218,206.218,0,0,1,26.226,337.5a170.29,170.29,0,0,1,5.287-21.671,99.042,99.042,0,0,1,8.224-18.642,64.047,64.047,0,0,1,11.2-14.674A44.553,44.553,0,0,1,65.5,273.459a52.177,52.177,0,0,1,17.857-3.445c.794.422,2.208,1.227,4.5,2.722,4.661,3.037,10.034,6.5,15.973,10.3,6.7,4.268,15.321,8.123,25.626,11.45a101.933,101.933,0,0,0,63.89,0c10.314-3.333,18.937-7.185,25.641-11.459,6.078-3.885,11.3-7.251,15.961-10.291,2.291-1.491,3.7-2.3,4.5-2.722a52.212,52.212,0,0,1,17.863,3.445,44.627,44.627,0,0,1,14.559,9.054,63.879,63.879,0,0,1,11.2,14.677,98.7,98.7,0,0,1,8.227,18.637,169.877,169.877,0,0,1,5.29,21.67,207.933,207.933,0,0,1,2.834,22.024v.006c.481,6.845.723,14,.726,21.272C300.135,394.742,296.2,405.269,288.094,412.979Zm0,0" transform="translate(0 -60.417)" fill="#fafafa"/>
    </g>
    <rect id="사각형_5" data-name="사각형 5" width="387" height="387" transform="translate(1127.924 144)" fill="none"/>
  </g>
</svg>
